G04 #@! TF.FileFunction,Soldermask,Top*
%FSLAX46Y46*%
G04 Gerber Fmt 4.6, Leading zero omitted, Abs format (unit mm)*
G04 Created by KiCad (PCBNEW 4.0.5) date Tue Apr  7 08:39:51 2020*
%MOMM*%
%LPD*%
G01*
G04 APERTURE LIST*
%ADD10C,0.100000*%
%ADD11C,1.501600*%
%ADD12R,1.701600X1.701600*%
%ADD13C,1.701600*%
%ADD14R,1.801600X1.801600*%
%ADD15O,1.801600X1.801600*%
%ADD16C,1.801600*%
%ADD17O,1.701600X1.701600*%
%ADD18R,1.524000X1.524000*%
%ADD19C,1.524000*%
%ADD20C,3.301600*%
G04 APERTURE END LIST*
D10*
D11*
X154940000Y-119380000D03*
X154940000Y-121880000D03*
X117475000Y-107315000D03*
X117475000Y-109815000D03*
X120015000Y-104775000D03*
X120015000Y-107275000D03*
X119380000Y-120650000D03*
X119380000Y-123150000D03*
X154940000Y-99060000D03*
X154940000Y-101560000D03*
X133985000Y-133350000D03*
X131485000Y-133350000D03*
D12*
X175895000Y-91440000D03*
D13*
X177895000Y-91440000D03*
D14*
X158750000Y-110490000D03*
D15*
X161290000Y-110490000D03*
X158750000Y-113030000D03*
X161290000Y-113030000D03*
X158750000Y-115570000D03*
X161290000Y-115570000D03*
D14*
X103505000Y-97790000D03*
D15*
X106045000Y-97790000D03*
D14*
X179705000Y-95250000D03*
D15*
X182245000Y-95250000D03*
D14*
X166370000Y-111760000D03*
D15*
X166370000Y-114300000D03*
D14*
X168910000Y-111760000D03*
D15*
X168910000Y-114300000D03*
D14*
X179705000Y-128905000D03*
D15*
X182245000Y-128905000D03*
D14*
X179705000Y-131445000D03*
D15*
X182245000Y-131445000D03*
D14*
X143510000Y-120650000D03*
D15*
X143510000Y-123190000D03*
D14*
X179705000Y-121920000D03*
D15*
X179705000Y-124460000D03*
D14*
X182245000Y-121920000D03*
D15*
X182245000Y-124460000D03*
D14*
X90512900Y-136715500D03*
D15*
X93052900Y-136715500D03*
X95592900Y-136715500D03*
X98132900Y-136715500D03*
X100672900Y-136715500D03*
X103212900Y-136715500D03*
X105752900Y-136715500D03*
X108292900Y-136715500D03*
X110832900Y-136715500D03*
X113372900Y-136715500D03*
X115912900Y-136715500D03*
X118452900Y-136715500D03*
X120992900Y-136715500D03*
X123532900Y-136715500D03*
X126072900Y-136715500D03*
X128612900Y-136715500D03*
X131152900Y-136715500D03*
X133692900Y-136715500D03*
X136232900Y-136715500D03*
X138772900Y-136715500D03*
X141312900Y-136715500D03*
X143852900Y-136715500D03*
X146392900Y-136715500D03*
X148932900Y-136715500D03*
X151472900Y-136715500D03*
X154012900Y-136715500D03*
X156552900Y-136715500D03*
X159092900Y-136715500D03*
X161632900Y-136715500D03*
X164172900Y-136715500D03*
X166712900Y-136715500D03*
X169252900Y-136715500D03*
X171792900Y-136715500D03*
X174332900Y-136715500D03*
X176872900Y-136715500D03*
X179412900Y-136715500D03*
X181952900Y-136715500D03*
X184492900Y-136715500D03*
X187032900Y-136715500D03*
D10*
G36*
X103501076Y-90805000D02*
X104775000Y-89531076D01*
X106048924Y-90805000D01*
X104775000Y-92078924D01*
X103501076Y-90805000D01*
X103501076Y-90805000D01*
G37*
D16*
X102978949Y-92601051D02*
X102978949Y-92601051D01*
X101182898Y-94397102D02*
X101182898Y-94397102D01*
X99386846Y-96193154D02*
X99386846Y-96193154D01*
X97590795Y-97989205D02*
X97590795Y-97989205D01*
X95794744Y-99785256D02*
X95794744Y-99785256D01*
D14*
X186055000Y-95250000D03*
D15*
X186055000Y-97790000D03*
X186055000Y-100330000D03*
X186055000Y-102870000D03*
X186055000Y-105410000D03*
X186055000Y-107950000D03*
D14*
X146685000Y-90805000D03*
D15*
X149225000Y-90805000D03*
X151765000Y-90805000D03*
X154305000Y-90805000D03*
X156845000Y-90805000D03*
X159385000Y-90805000D03*
X161925000Y-90805000D03*
X164465000Y-90805000D03*
D14*
X109855000Y-90805000D03*
D15*
X112395000Y-90805000D03*
X114935000Y-90805000D03*
X117475000Y-90805000D03*
X120015000Y-90805000D03*
X122555000Y-90805000D03*
X125095000Y-90805000D03*
D14*
X169545000Y-90805000D03*
D15*
X172085000Y-90805000D03*
D14*
X186055000Y-128905000D03*
D15*
X186055000Y-131445000D03*
D13*
X117475000Y-97790000D03*
D17*
X109855000Y-97790000D03*
D13*
X179070000Y-98425000D03*
D17*
X179070000Y-106045000D03*
D13*
X109855000Y-94615000D03*
D17*
X117475000Y-94615000D03*
D13*
X179070000Y-116840000D03*
D17*
X179070000Y-109220000D03*
D12*
X102870000Y-109855000D03*
D17*
X102870000Y-112395000D03*
X102870000Y-114935000D03*
X102870000Y-117475000D03*
X102870000Y-120015000D03*
X102870000Y-122555000D03*
D12*
X117475000Y-101600000D03*
D17*
X114935000Y-101600000D03*
X112395000Y-101600000D03*
X109855000Y-101600000D03*
X107315000Y-101600000D03*
X104775000Y-101600000D03*
X102235000Y-101600000D03*
X99695000Y-101600000D03*
D12*
X182245000Y-99060000D03*
D17*
X182245000Y-101600000D03*
X182245000Y-104140000D03*
X182245000Y-106680000D03*
X182245000Y-109220000D03*
X182245000Y-111760000D03*
X182245000Y-114300000D03*
X182245000Y-116840000D03*
D12*
X142240000Y-90805000D03*
D17*
X139700000Y-90805000D03*
X137160000Y-90805000D03*
X134620000Y-90805000D03*
X132080000Y-90805000D03*
X129540000Y-90805000D03*
D12*
X91440000Y-114935000D03*
D17*
X99060000Y-122555000D03*
X91440000Y-117475000D03*
X99060000Y-120015000D03*
X91440000Y-120015000D03*
X99060000Y-117475000D03*
X91440000Y-122555000D03*
X99060000Y-114935000D03*
D12*
X158115000Y-127000000D03*
D17*
X173355000Y-119380000D03*
X160655000Y-127000000D03*
X170815000Y-119380000D03*
X163195000Y-127000000D03*
X168275000Y-119380000D03*
X165735000Y-127000000D03*
X165735000Y-119380000D03*
X168275000Y-127000000D03*
X163195000Y-119380000D03*
X170815000Y-127000000D03*
X160655000Y-119380000D03*
X173355000Y-127000000D03*
X158115000Y-119380000D03*
D12*
X106680000Y-107315000D03*
D17*
X114300000Y-130175000D03*
X106680000Y-109855000D03*
X114300000Y-127635000D03*
X106680000Y-112395000D03*
X114300000Y-125095000D03*
X106680000Y-114935000D03*
X114300000Y-122555000D03*
X106680000Y-117475000D03*
X114300000Y-120015000D03*
X106680000Y-120015000D03*
X114300000Y-117475000D03*
X106680000Y-122555000D03*
X114300000Y-114935000D03*
X106680000Y-125095000D03*
X114300000Y-112395000D03*
X106680000Y-127635000D03*
X114300000Y-109855000D03*
X106680000Y-130175000D03*
X114300000Y-107315000D03*
D18*
X127000000Y-104140000D03*
D19*
X127000000Y-106680000D03*
X127000000Y-109220000D03*
X127000000Y-101600000D03*
X127000000Y-99060000D03*
X124460000Y-106680000D03*
X124460000Y-109220000D03*
X124460000Y-111760000D03*
X124460000Y-104140000D03*
X124460000Y-101600000D03*
X127000000Y-111760000D03*
X129540000Y-111760000D03*
X132080000Y-111760000D03*
X134620000Y-111760000D03*
X137160000Y-111760000D03*
X127000000Y-114300000D03*
X129540000Y-114300000D03*
X132080000Y-114300000D03*
X134620000Y-114300000D03*
X137160000Y-114300000D03*
X139700000Y-114300000D03*
X139700000Y-111760000D03*
X139700000Y-109220000D03*
X139700000Y-106680000D03*
X139700000Y-104140000D03*
X139700000Y-101600000D03*
X139700000Y-96520000D03*
X142240000Y-111760000D03*
X142240000Y-109220000D03*
X142240000Y-106680000D03*
X142240000Y-104140000D03*
X142240000Y-101600000D03*
X142240000Y-99060000D03*
X139700000Y-99060000D03*
X137160000Y-99060000D03*
X134620000Y-99060000D03*
X132080000Y-99060000D03*
X129540000Y-99060000D03*
X124460000Y-99060000D03*
X137160000Y-96520000D03*
X134620000Y-96520000D03*
X132080000Y-96520000D03*
X129540000Y-96520000D03*
X127000000Y-96520000D03*
D12*
X122555000Y-128270000D03*
D17*
X137795000Y-120650000D03*
X125095000Y-128270000D03*
X135255000Y-120650000D03*
X127635000Y-128270000D03*
X132715000Y-120650000D03*
X130175000Y-128270000D03*
X130175000Y-120650000D03*
X132715000Y-128270000D03*
X127635000Y-120650000D03*
X135255000Y-128270000D03*
X125095000Y-120650000D03*
X137795000Y-128270000D03*
X122555000Y-120650000D03*
D12*
X158115000Y-106680000D03*
D17*
X173355000Y-99060000D03*
X160655000Y-106680000D03*
X170815000Y-99060000D03*
X163195000Y-106680000D03*
X168275000Y-99060000D03*
X165735000Y-106680000D03*
X165735000Y-99060000D03*
X168275000Y-106680000D03*
X163195000Y-99060000D03*
X170815000Y-106680000D03*
X160655000Y-99060000D03*
X173355000Y-106680000D03*
X158115000Y-99060000D03*
D20*
X93930000Y-105300000D03*
M02*
