M48
INCH,TZ
T1C0.016
T2C0.022
T3C0.028
T4C0.031
T5C0.039
T6C0.126
%
G90
G05
T1
X3.975Y-5.075
X4.25Y-4.675
X4.275Y-5.125
X4.325Y-5.175
X4.375Y-4.325
X4.425Y-4.225
X4.425Y-4.375
X4.425Y-4.525
X4.475Y-3.9
X4.475Y-4.05
X4.525Y-3.725
X4.525Y-3.85
X4.575Y-4.775
X4.675Y-3.8
X4.675Y-4.975
X4.775Y-4.05
X4.775Y-4.25
X4.775Y-4.6
X4.825Y-4.925
X4.9Y-3.8
X4.95Y-4.55
X5.025Y-4.6
X5.025Y-4.825
X5.05Y-3.675
X5.05Y-4.15
X5.075Y-4.
X5.075Y-4.05
X5.1Y-4.3
X5.125Y-4.65
X5.15Y-4.6
X5.225Y-4.975
X5.25Y-4.05
X5.25Y-4.35
X5.3Y-4.25
X5.375Y-4.925
X5.45Y-4.25
X5.5Y-5.075
X5.55Y-5.075
X5.575Y-4.625
X5.6Y-4.975
X5.65Y-4.975
X5.7Y-3.9
X5.75Y-4.4
X5.8Y-4.05
X5.85Y-4.45
X5.875Y-3.675
X5.9Y-4.
X5.925Y-3.725
X5.95Y-4.3
X6.Y-4.15
X6.05Y-4.35
X6.2Y-4.625
X6.225Y-3.725
X6.325Y-3.725
X6.9Y-5.325
X6.925Y-4.225
X6.925Y-5.075
X6.925Y-5.125
X7.225Y-5.275
X7.275Y-5.225
T2
X4.1Y-4.2
X4.125Y-4.275
X4.2Y-5.3
X4.65Y-4.425
X4.725Y-4.5
X5.175Y-4.875
X5.425Y-5.3
X6.95Y-5.25
X7.325Y-4.35
X7.325Y-4.7
T3
X4.625Y-4.225
X4.625Y-4.3234
X4.7Y-4.75
X4.7Y-4.8484
X4.725Y-4.125
X4.725Y-4.2234
X5.1766Y-5.25
X5.275Y-5.25
X6.1Y-3.9
X6.1Y-3.9984
X6.1Y-4.7
X6.1Y-4.7984
T4
X3.6Y-4.525
X3.6Y-4.625
X3.6Y-4.725
X3.6Y-4.825
X3.9Y-4.525
X3.9Y-4.625
X3.9Y-4.725
X3.9Y-4.825
X3.925Y-4.
X4.025Y-4.
X4.05Y-4.325
X4.05Y-4.425
X4.05Y-4.525
X4.05Y-4.625
X4.05Y-4.725
X4.05Y-4.825
X4.125Y-4.
X4.2Y-4.225
X4.2Y-4.325
X4.2Y-4.425
X4.2Y-4.525
X4.2Y-4.625
X4.2Y-4.725
X4.2Y-4.825
X4.2Y-4.925
X4.2Y-5.025
X4.2Y-5.125
X4.225Y-4.
X4.325Y-3.725
X4.325Y-3.85
X4.325Y-4.
X4.425Y-4.
X4.5Y-4.225
X4.5Y-4.325
X4.5Y-4.425
X4.5Y-4.525
X4.5Y-4.625
X4.5Y-4.725
X4.5Y-4.825
X4.5Y-4.925
X4.5Y-5.025
X4.5Y-5.125
X4.525Y-4.
X4.625Y-3.725
X4.625Y-3.85
X4.625Y-4.
X4.825Y-4.75
X4.825Y-5.05
X4.9Y-3.9
X4.9Y-4.
X4.9Y-4.1
X4.9Y-4.2
X4.9Y-4.3
X4.9Y-4.4
X4.925Y-4.75
X4.925Y-5.05
X5.Y-3.8
X5.Y-3.9
X5.Y-4.
X5.Y-4.1
X5.Y-4.2
X5.Y-4.3
X5.Y-4.4
X5.Y-4.5
X5.025Y-4.75
X5.025Y-5.05
X5.1Y-3.575
X5.1Y-3.8
X5.1Y-3.9
X5.1Y-4.4
X5.1Y-4.5
X5.125Y-4.75
X5.125Y-5.05
X5.2Y-3.575
X5.2Y-3.8
X5.2Y-3.9
X5.2Y-4.4
X5.2Y-4.5
X5.225Y-4.75
X5.225Y-5.05
X5.3Y-3.575
X5.3Y-3.8
X5.3Y-3.9
X5.3Y-4.4
X5.3Y-4.5
X5.325Y-4.75
X5.325Y-5.05
X5.4Y-3.575
X5.4Y-3.8
X5.4Y-3.9
X5.4Y-4.4
X5.4Y-4.5
X5.425Y-4.75
X5.425Y-5.05
X5.5Y-3.575
X5.5Y-3.8
X5.5Y-3.9
X5.5Y-4.
X5.5Y-4.1
X5.5Y-4.2
X5.5Y-4.3
X5.5Y-4.4
X5.5Y-4.5
X5.6Y-3.575
X5.6Y-3.9
X5.6Y-4.
X5.6Y-4.1
X5.6Y-4.2
X5.6Y-4.3
X5.6Y-4.4
X6.225Y-3.9
X6.225Y-4.2
X6.225Y-4.7
X6.225Y-5.
X6.325Y-3.9
X6.325Y-4.2
X6.325Y-4.7
X6.325Y-5.
X6.425Y-3.9
X6.425Y-4.2
X6.425Y-4.7
X6.425Y-5.
X6.525Y-3.9
X6.525Y-4.2
X6.525Y-4.7
X6.525Y-5.
X6.625Y-3.9
X6.625Y-4.2
X6.625Y-4.7
X6.625Y-5.
X6.725Y-3.9
X6.725Y-4.2
X6.725Y-4.7
X6.725Y-5.
X6.825Y-3.9
X6.825Y-4.2
X6.825Y-4.7
X6.825Y-5.
X6.925Y-3.6
X7.0037Y-3.6
X7.05Y-3.875
X7.05Y-4.175
X7.05Y-4.3
X7.05Y-4.6
X7.175Y-3.9
X7.175Y-4.
X7.175Y-4.1
X7.175Y-4.2
X7.175Y-4.3
X7.175Y-4.4
X7.175Y-4.5
X7.175Y-4.6
T5
X3.5635Y-5.3825
X3.6635Y-5.3825
X3.7635Y-5.3825
X3.7714Y-3.9286
X3.8422Y-3.8578
X3.8635Y-5.3825
X3.9129Y-3.7871
X3.9635Y-5.3825
X3.9836Y-3.7164
X4.0543Y-3.6457
X4.0635Y-5.3825
X4.075Y-3.85
X4.125Y-3.575
X4.1635Y-5.3825
X4.175Y-3.85
X4.2635Y-5.3825
X4.325Y-3.575
X4.3635Y-5.3825
X4.425Y-3.575
X4.4635Y-5.3825
X4.525Y-3.575
X4.5635Y-5.3825
X4.625Y-3.575
X4.6635Y-5.3825
X4.725Y-3.575
X4.7635Y-5.3825
X4.825Y-3.575
X4.8635Y-5.3825
X4.925Y-3.575
X4.9635Y-5.3825
X5.0635Y-5.3825
X5.1635Y-5.3825
X5.2635Y-5.3825
X5.3635Y-5.3825
X5.4635Y-5.3825
X5.5635Y-5.3825
X5.65Y-4.75
X5.65Y-4.85
X5.6635Y-5.3825
X5.7635Y-5.3825
X5.775Y-3.575
X5.8635Y-5.3825
X5.875Y-3.575
X5.9635Y-5.3825
X5.975Y-3.575
X6.0635Y-5.3825
X6.075Y-3.575
X6.1635Y-5.3825
X6.175Y-3.575
X6.25Y-4.35
X6.25Y-4.45
X6.25Y-4.55
X6.2635Y-5.3825
X6.275Y-3.575
X6.35Y-4.35
X6.35Y-4.45
X6.35Y-4.55
X6.3635Y-5.3825
X6.375Y-3.575
X6.4635Y-5.3825
X6.475Y-3.575
X6.525Y-4.4
X6.525Y-4.5
X6.5635Y-5.3825
X6.65Y-4.4
X6.65Y-4.5
X6.6635Y-5.3825
X6.675Y-3.575
X6.7635Y-5.3825
X6.775Y-3.575
X6.8635Y-5.3825
X6.9635Y-5.3825
X7.0635Y-5.3825
X7.075Y-3.75
X7.075Y-4.8
X7.075Y-4.9
X7.075Y-5.075
X7.075Y-5.175
X7.1635Y-5.3825
X7.175Y-3.75
X7.175Y-5.075
X7.175Y-5.175
X7.2Y-4.8
X7.2Y-4.9
X7.2635Y-5.3825
X7.325Y-3.75
X7.325Y-3.85
X7.325Y-3.95
X7.325Y-4.05
X7.325Y-4.15
X7.325Y-4.25
X7.325Y-5.075
X7.325Y-5.175
X7.3635Y-5.3825
T6
X3.698Y-4.1457
T0
M30
