M48
INCH,TZ
T1C0.016
T2C0.022
T3C0.028
T4C0.031
T5C0.039
T6C0.126
%
G90
G05
T1
X39750Y-50750
X42500Y-46750
X42750Y-51250
X43250Y-51750
X43750Y-43250
X44250Y-42250
X44250Y-43750
X44250Y-45250
X44750Y-39000
X44750Y-40500
X45250Y-37250
X45250Y-38500
X45750Y-47750
X46750Y-38000
X46750Y-49750
X47750Y-40500
X47750Y-42500
X47750Y-46000
X48250Y-49250
X49000Y-38000
X49500Y-45500
X50250Y-46000
X50250Y-48250
X50500Y-36750
X50500Y-41500
X50750Y-40000
X50750Y-40500
X51000Y-43000
X51250Y-46500
X51500Y-46000
X52250Y-49750
X52500Y-40500
X52500Y-43500
X53000Y-42500
X53750Y-49250
X54500Y-42500
X55000Y-50750
X55500Y-50750
X55750Y-46250
X56000Y-49750
X56500Y-49750
X57000Y-39000
X57500Y-44000
X58000Y-40500
X58500Y-44500
X58750Y-36750
X59000Y-40000
X59250Y-37250
X59500Y-43000
X60000Y-41500
X60500Y-43500
X62000Y-46250
X62250Y-37250
X63250Y-37250
X69000Y-53250
X69250Y-42250
X69250Y-50750
X69250Y-51250
X72250Y-52750
X72750Y-52250
T2
X41000Y-42000
X41250Y-42750
X42000Y-53000
X46500Y-44250
X47250Y-45000
X51750Y-48750
X54250Y-53000
X69500Y-52500
X73250Y-43500
X73250Y-47000
T3
X46250Y-42250
X46250Y-43234
X47000Y-47500
X47000Y-48484
X47250Y-41250
X47250Y-42234
X51766Y-52500
X52750Y-52500
X61000Y-39000
X61000Y-39984
X61000Y-47000
X61000Y-47984
T4
X36000Y-45250
X36000Y-46250
X36000Y-47250
X36000Y-48250
X39000Y-45250
X39000Y-46250
X39000Y-47250
X39000Y-48250
X39250Y-40000
X40250Y-40000
X40500Y-43250
X40500Y-44250
X40500Y-45250
X40500Y-46250
X40500Y-47250
X40500Y-48250
X41250Y-40000
X42000Y-42250
X42000Y-43250
X42000Y-44250
X42000Y-45250
X42000Y-46250
X42000Y-47250
X42000Y-48250
X42000Y-49250
X42000Y-50250
X42000Y-51250
X42250Y-40000
X43250Y-37250
X43250Y-38500
X43250Y-40000
X44250Y-40000
X45000Y-42250
X45000Y-43250
X45000Y-44250
X45000Y-45250
X45000Y-46250
X45000Y-47250
X45000Y-48250
X45000Y-49250
X45000Y-50250
X45000Y-51250
X45250Y-40000
X46250Y-37250
X46250Y-38500
X46250Y-40000
X48250Y-47500
X48250Y-50500
X49000Y-39000
X49000Y-40000
X49000Y-41000
X49000Y-42000
X49000Y-43000
X49000Y-44000
X49250Y-47500
X49250Y-50500
X50000Y-38000
X50000Y-39000
X50000Y-40000
X50000Y-41000
X50000Y-42000
X50000Y-43000
X50000Y-44000
X50000Y-45000
X50250Y-47500
X50250Y-50500
X51000Y-35750
X51000Y-38000
X51000Y-39000
X51000Y-44000
X51000Y-45000
X51250Y-47500
X51250Y-50500
X52000Y-35750
X52000Y-38000
X52000Y-39000
X52000Y-44000
X52000Y-45000
X52250Y-47500
X52250Y-50500
X53000Y-35750
X53000Y-38000
X53000Y-39000
X53000Y-44000
X53000Y-45000
X53250Y-47500
X53250Y-50500
X54000Y-35750
X54000Y-38000
X54000Y-39000
X54000Y-44000
X54000Y-45000
X54250Y-47500
X54250Y-50500
X55000Y-35750
X55000Y-38000
X55000Y-39000
X55000Y-40000
X55000Y-41000
X55000Y-42000
X55000Y-43000
X55000Y-44000
X55000Y-45000
X56000Y-35750
X56000Y-39000
X56000Y-40000
X56000Y-41000
X56000Y-42000
X56000Y-43000
X56000Y-44000
X62250Y-39000
X62250Y-42000
X62250Y-47000
X62250Y-50000
X63250Y-39000
X63250Y-42000
X63250Y-47000
X63250Y-50000
X64250Y-39000
X64250Y-42000
X64250Y-47000
X64250Y-50000
X65250Y-39000
X65250Y-42000
X65250Y-47000
X65250Y-50000
X66250Y-39000
X66250Y-42000
X66250Y-47000
X66250Y-50000
X67250Y-39000
X67250Y-42000
X67250Y-47000
X67250Y-50000
X68250Y-39000
X68250Y-42000
X68250Y-47000
X68250Y-50000
X69250Y-36000
X70037Y-36000
X70500Y-38750
X70500Y-41750
X70500Y-43000
X70500Y-46000
X71750Y-39000
X71750Y-40000
X71750Y-41000
X71750Y-42000
X71750Y-43000
X71750Y-44000
X71750Y-45000
X71750Y-46000
T5
X35635Y-53825
X36635Y-53825
X37635Y-53825
X37714Y-39286
X38422Y-38578
X38635Y-53825
X39129Y-37871
X39635Y-53825
X39836Y-37164
X40543Y-36457
X40635Y-53825
X40750Y-38500
X41250Y-35750
X41635Y-53825
X41750Y-38500
X42635Y-53825
X43250Y-35750
X43635Y-53825
X44250Y-35750
X44635Y-53825
X45250Y-35750
X45635Y-53825
X46250Y-35750
X46635Y-53825
X47250Y-35750
X47635Y-53825
X48250Y-35750
X48635Y-53825
X49250Y-35750
X49635Y-53825
X50635Y-53825
X51635Y-53825
X52635Y-53825
X53635Y-53825
X54635Y-53825
X55635Y-53825
X56500Y-47500
X56500Y-48500
X56635Y-53825
X57635Y-53825
X57750Y-35750
X58635Y-53825
X58750Y-35750
X59635Y-53825
X59750Y-35750
X60635Y-53825
X60750Y-35750
X61635Y-53825
X61750Y-35750
X62500Y-43500
X62500Y-44500
X62500Y-45500
X62635Y-53825
X62750Y-35750
X63500Y-43500
X63500Y-44500
X63500Y-45500
X63635Y-53825
X63750Y-35750
X64635Y-53825
X64750Y-35750
X65500Y-44000
X65500Y-45000
X65635Y-53825
X66500Y-44000
X66500Y-45000
X66635Y-53825
X66750Y-35750
X67635Y-53825
X67750Y-35750
X68635Y-53825
X69635Y-53825
X70635Y-53825
X70750Y-37500
X70750Y-48000
X70750Y-49000
X70750Y-50750
X70750Y-51750
X71635Y-53825
X71750Y-37500
X71750Y-48000
X71750Y-49000
X71750Y-50750
X71750Y-51750
X72635Y-53825
X73250Y-37500
X73250Y-38500
X73250Y-39500
X73250Y-40500
X73250Y-41500
X73250Y-42500
X73250Y-50750
X73250Y-51750
X73635Y-53825
T6
X36980Y-41457
T0
M30
